<?xml version="1.0" encoding="UTF-8"?>
<svg width="1096px" height="1102px" viewBox="0 0 1096 1102" version="1.1" xmlns="http://www.w3.org/2000/svg" xmlns:xlink="http://www.w3.org/1999/xlink">
    <title>Lynx_earth_globe_(oceania)</title>
    <g id="Page-1" stroke="none" stroke-width="1" fill="none" fill-rule="evenodd">
        <g id="Lynx_earth_globe_(oceania)" fill-rule="nonzero">
            <path d="M1.01949529,0 L1095.9195,0 L1095.9195,1101.9 L0.0194952941,1101.9 L0.0194952941,3 C-0.0225047059,1.581 -0.101504706,0.168 1.06349529,0 L1.01949529,0 Z M418.969495,55.993 C319.854495,83.718 238.509495,136.723 179.999495,200.973 C102.329495,286.273 36.1494953,407.993 45.0194953,574.933 C53.3464953,731.593 118.477495,841.643 206.999495,923.893 C291.088495,1002.017 415.829495,1067.693 579.949495,1059.873 C737.449495,1052.373 847.589495,985.969 929.909495,898.893 C970.770495,855.671 1003.8145,803.696 1028.8965,742.913 C1054.0725,681.904 1070.9465,610.073 1066.8915,524.943 C1059.5205,370.153 989.329495,255.153 904.911495,175.983 C820.931495,97.181 695.821495,31.123 530.971495,38.963 C494.251495,40.717 452.861495,46.489 418.981495,55.966 L418.969495,55.993 Z" id="Shape" fill="#FFFFFF"></path>
            <path d="M495.955495,288.96 C493.473495,300.809 489.479495,311.148 482.956495,318.956 C478.095495,316.152 473.645495,312.935 474.957495,303.958 C483.617495,300.618 481.127495,286.128 495.957495,288.958 L495.955495,288.96 Z" id="Path" fill="#000000"></path>
            <path d="M509.955495,408.95 C505.125495,410.961 513.596495,412.035 510.955495,417.948 C506.113495,418.792 507.783495,413.122 501.956495,414.949 C502.984495,407.958 504.089495,407.455 501.956495,400.951 C498.151495,402.146 491.423495,404.621 486.957495,401.951 C485.722495,398.716 490.192495,401.186 488.957495,397.951 C486.642495,398.97 484.302495,399.963 483.957495,402.95 C483.081495,406.16 486.550495,405.023 486.957495,406.95 C487.321495,411.312 485.141495,413.133 482.957495,414.949 C477.843495,412.731 476.281495,406.961 474.958495,400.951 C475.565495,399.224 479.701495,401.027 479.958495,398.951 C480.985495,395.592 476.848495,397.394 474.958495,396.951 C474.213495,393.874 477.703495,395.03 476.958495,391.952 C477.126495,389.784 473.412495,391.499 471.958495,390.952 C471.516495,384.395 467.134495,381.778 468.958495,372.954 C471.423495,373.086 473.775495,373.105 474.957495,371.954 L474.957495,354.957 C478.608495,354.275 479.470495,350.804 481.957495,348.957 C488.239495,348.341 488.248495,353.998 495.955495,351.957 L495.955495,372.954 C492.993495,374.325 490.847495,376.512 486.956495,376.954 L486.956495,382.953 C487.312495,385.597 492.051495,383.857 492.956495,385.953 C493.498495,389.827 487.155495,386.817 486.956495,389.952 C486.282495,396.25 496.042495,394.22 496.955495,390.952 C499.621495,393.285 503.841495,394.064 507.954495,394.951 C506.635495,402.27 511.267495,403.638 511.954495,408.95 L522.953495,408.95 C522.772495,411.131 523.771495,412.131 525.953495,411.949 L525.953495,423.948 L520.954495,423.948 C520.211495,428.024 524.177495,427.39 522.954495,431.947 C521.772495,433.098 519.420495,433.079 516.955495,432.947 C517.401495,426.812 510.434495,422.077 515.955495,416.949 C515.555495,412.679 510.625495,412.949 509.955495,408.949 L509.955495,408.95 Z" id="Path" fill="#000000"></path>
            <path d="M507.955495,434.94 C511.104495,435.423 510.219495,431.872 513.954495,432.941 C514.512495,435.382 517.823495,435.071 516.954495,438.94 C506.093495,436.412 504.729495,443.379 497.956495,444.939 C495.450495,443.446 492.489495,442.408 492.957495,437.94 C493.245495,434.228 498.247495,435.231 497.956495,430.941 C496.245495,428.653 490.324495,430.574 486.957495,429.941 C487.423495,425.407 491.684495,424.669 489.957495,417.942 C502.097495,414.801 500.380495,425.517 505.955495,428.941 C509.104495,429.424 506.704495,424.357 508.955495,423.942 C513.955495,425.352 510.825495,433.032 507.955495,434.942 L507.955495,434.94 Z" id="Path" fill="#000000"></path>
            <path d="M522.955495,435.94 C526.058495,435.836 525.809495,439.086 529.954495,437.94 C529.011495,443.216 533.003495,443.557 534.954495,445.939 C535.120495,451.772 533.698495,459.193 537.953495,460.937 C534.612495,464.261 535.509495,471.824 528.954495,471.936 C528.407495,470.483 530.122495,466.768 527.954495,466.936 C523.600495,467.915 527.061495,476.709 525.954495,480.934 C516.966495,480.59 512.793495,475.431 507.956495,470.936 C507.164495,467.478 509.067495,466.714 509.956495,464.936 C509.515495,462.045 507.848495,460.378 504.957495,459.937 C502.065495,461.626 498.087495,465.055 494.958495,460.937 C491.809495,460.454 494.209495,465.521 491.958495,465.936 C483.867495,457.589 499.843495,449.819 507.956495,447.939 L507.956495,452.938 C511.701495,452.684 513.545495,450.528 516.955495,449.938 L516.955495,444.939 C519.420495,445.071 521.772495,445.09 522.954495,443.939 L522.954495,435.939 L522.955495,435.94 Z" id="Path" fill="#000000"></path>
            <path d="M140.005495,447.94 C147.680495,451.782 156.735495,487.455 136.005495,483.935 C134.345495,468.955 138.955495,460.215 140.005495,447.935 L140.005495,447.94 Z" id="Path" fill="#000000"></path>
            <path d="M441.965495,462.94 C440.432495,470.805 445.369495,472.201 445.965495,477.938 C454.475495,476.426 456.191495,481.71 459.963495,484.937 C459.388495,490.028 452.268495,488.574 453.964495,495.936 L445.965495,495.936 C444.075495,498.378 445.929495,504.566 442.965495,505.934 C445.073495,510.492 449.955495,512.276 447.964495,520.932 C451.297495,524.266 458.805495,523.423 456.963495,531.931 C452.818495,532.785 444.666495,529.632 444.964495,534.931 C447.163495,539.731 456.057495,537.836 453.963495,546.929 C448.253495,547.306 449.484495,540.742 443.964495,540.93 C440.649495,541.281 442.395495,546.693 441.964495,549.929 C436.140495,548.438 436.495495,553.125 432.965495,553.928 C434.912495,566.54 427.941495,570.235 429.965495,582.924 C423.624495,577.819 419.599495,581.792 411.967495,582.924 C410.948495,568.847 393.038495,572.075 384.970495,576.925 C385.102495,574.46 385.122495,572.108 383.970495,570.926 L369.971495,570.926 C370.212495,564.353 364.958495,563.274 366.971495,554.928 C366.859495,552.373 363.623495,552.944 360.972495,552.928 C359.879495,543.022 353.494495,538.408 354.972495,525.932 C358.623495,525.25 359.485495,521.779 361.971495,519.932 C368.271495,518.632 367.018495,524.884 373.970495,522.932 C377.964495,516.261 387.248495,514.879 390.968495,507.934 C404.350495,504.753 403.389495,487.408 419.964495,486.937 C421.115495,485.755 421.096495,483.402 420.964495,480.937 L425.964495,480.937 C425.731495,473.372 433.787495,474.095 432.963495,465.939 C438.793495,467.769 437.123495,462.099 441.963495,462.939 L441.965495,462.94 Z" id="Path" fill="#000000"></path>
            <path d="M237.985495,483.94 L241.985495,483.94 C244.503495,487.088 249.843495,487.415 255.983495,486.94 C262.291495,492.631 262.601495,504.319 273.981495,504.937 C275.635495,516.948 287.387495,518.861 296.978495,522.935 C299.149495,530.43 307.801495,531.444 309.977495,538.933 C311.365495,544.32 306.168495,543.123 306.977495,547.932 C317.134495,549.108 314.682495,562.891 323.975495,564.93 C325.044495,561.195 321.492495,562.079 321.975495,558.93 C324.810495,557.766 325.789495,554.745 330.974495,555.931 C327.751495,566.925 340.312495,565.98 336.974495,573.929 C333.896495,574.673 335.052495,571.184 331.974495,571.929 C323.528495,581.038 333.898495,591.324 327.974495,600.925 C323.642495,599.258 320.248495,596.653 312.976495,597.925 C310.153495,588.083 295.497495,590.074 294.978495,577.928 C293.796495,576.777 291.444495,576.796 288.979495,576.928 C288.657495,570.918 285.845495,567.398 282.980495,563.93 C283.443495,556.467 280.015495,552.896 276.980495,548.932 C276.476495,527.439 256.913495,525.004 252.983495,506.937 C245.283495,501.967 238.413495,496.167 237.983495,483.937 L237.985495,483.94 Z" id="Path" fill="#000000"></path>
            <path d="M478.955495,534.93 L500.953495,534.93 C499.552495,540.194 497.910495,545.218 492.954495,546.928 C490.374495,540.848 483.794495,538.768 478.954495,534.928 L478.955495,534.93 Z" id="Path" fill="#FFFFFF"></path>
            <path d="M486.955495,544.93 C484.542495,548.436 472.908495,547.201 468.957495,545.93 L468.957495,541.931 C473.287495,540.901 486.947495,538.401 486.957495,544.931 L486.955495,544.93 Z" id="Path" fill="#FFFFFF"></path>
            <path d="M570.945495,546.93 L573.944495,546.93 C571.686495,556.188 578.999495,555.874 579.944495,561.928 L570.945495,561.928 C571.855495,555.788 568.565495,551.598 570.945495,546.928 L570.945495,546.93 Z" id="Path" fill="#000000"></path>
            <path d="M603.945495,562.93 C601.752495,562.821 595.877495,566.555 588.947495,564.93 C587.521495,560.504 592.331495,562.314 591.947495,558.93 C589.487495,552.725 574.606495,558.94 576.949495,547.932 C585.111495,548.032 598.754495,546.28 612.945495,546.932 C616.798495,549.078 614.162495,557.713 618.944495,558.93 C619.689495,562.008 616.199495,560.852 616.944495,563.93 C616.775495,566.098 620.490495,564.383 621.943495,564.93 L621.943495,571.929 C622.084495,574.788 626.114495,573.757 628.943495,573.929 C635.480495,565.468 646.130495,561.119 652.939495,552.931 C661.423495,558.446 667.727495,566.14 682.935495,564.93 C691.168495,569.362 698.890495,574.305 711.932495,573.929 C716.706495,581.153 725.569495,584.288 732.929495,588.927 L732.929495,596.926 C740.741495,599.447 751.138495,599.381 750.927495,609.924 C748.276495,609.939 745.039495,609.369 744.928495,611.924 C744.084495,616.766 749.754495,615.097 747.927495,620.923 C749.109495,622.073 751.461495,622.054 753.927495,621.922 C752.168495,628.347 758.506495,626.675 756.926495,632.921 C765.687495,636.492 772.981495,641.529 774.924495,651.919 C768.574495,652.936 767.062495,649.115 764.925495,645.919 L747.927495,645.919 C744.245495,638.936 737.770495,634.746 735.929495,625.922 C728.010495,623.308 719.722495,617.476 711.932495,622.922 C713.511495,629.168 707.174495,627.496 708.932495,633.921 C702.089495,636.076 695.009495,637.996 684.935495,636.92 C678.759495,624.315 667.693495,624.993 651.939495,627.922 C650.394495,619.043 654.527495,615.844 660.939495,614.923 C658.624495,595.241 643.808495,588.06 623.943495,585.927 C617.274495,580.318 610.170495,579.035 600.946495,582.927 C601.960495,574.914 598.949495,570.926 591.947495,570.929 C593.507495,565.829 603.157495,568.809 603.947495,562.929 L603.945495,562.93 Z" id="Path" fill="#000000"></path>
            <path d="M561.945495,558.93 C561.955495,562.978 556.424495,566.689 552.946495,563.93 C554.996495,561.31 558.176495,559.82 561.946495,558.93 L561.945495,558.93 Z" id="Path" fill="#000000"></path>
            <path d="M579.945495,579.93 C573.425495,574.593 567.357495,577.288 560.947495,574.93 C555.976495,575.291 557.239495,581.887 549.949495,579.93 C549.823495,576.287 554.131495,575.16 549.949495,572.931 C555.429495,562.481 583.859495,568.581 579.949495,579.931 L579.945495,579.93 Z" id="Path" fill="#000000"></path>
            <path d="M543.955495,574.93 C543.239495,579.88 538.103495,580.409 531.957495,579.93 C529.727495,570.53 541.417495,568.36 543.957495,574.93 L543.955495,574.93 Z" id="Path" fill="#000000"></path>
            <path d="M371.975495,611.92 C374.143495,612.088 372.428495,608.373 372.975495,606.92 C382.212495,606.682 387.600495,610.293 393.972495,612.92 C396.997495,609.945 402.381495,609.33 408.970495,609.92 C409.514495,616.464 401.945495,614.893 397.971495,616.919 C398.950495,621.273 407.744495,617.812 411.970495,618.919 C413.414495,623.474 417.243495,625.644 423.968495,624.918 C424.100495,627.383 424.120495,629.735 422.968495,630.917 C416.743495,631.476 414.568495,624.808 410.969495,630.917 C406.134495,625.753 393.245495,628.644 383.972495,627.918 C377.850495,625.041 372.234495,621.657 362.974495,621.918 C359.762495,622.798 361.604495,618.622 358.974495,618.919 C347.982495,625.072 333.570495,614.54 324.978495,608.92 C329.583495,598.016 334.190495,604.255 346.975495,603.921 C352.095495,609.801 363.735495,609.161 371.975495,611.921 L371.975495,611.92 Z" id="Path" fill="#000000"></path>
            <path d="M537.955495,619.92 C538.729495,623.428 529.709495,622.249 528.956495,620.92 C528.176495,617.42 537.196495,618.59 537.956495,619.92 L537.955495,619.92 Z" id="Path" fill="#000000"></path>
            <path d="M459.965495,630.92 C448.218495,634.727 437.455495,632.418 426.969495,633.92 C426.814495,628.433 428.615495,624.901 433.968495,624.921 C439.468495,633.581 457.338495,616.421 459.968495,630.921 L459.965495,630.92 Z" id="Path" fill="#000000"></path>
            <path d="M486.955495,627.92 L486.955495,633.919 C476.757495,636.118 475.032495,629.844 465.958495,630.919 C468.098495,619.309 478.608495,628.679 486.958495,627.919 L486.955495,627.92 Z" id="Path" fill="#000000"></path>
            <path d="M519.955495,625.92 C520.729495,629.428 511.709495,628.249 510.956495,626.92 C510.186495,623.41 519.206495,624.59 519.956495,625.92 L519.955495,625.92 Z" id="Path" fill="#000000"></path>
            <path d="M541.955495,628.92 C533.796495,634.759 521.199495,636.161 516.959495,645.918 C510.233495,644.191 509.494495,648.452 504.960495,648.918 C502.034495,632.66 520.221495,637.516 523.958495,627.921 C532.878495,631.571 540.378495,620.281 541.958495,628.921 L541.955495,628.92 Z" id="Path" fill="#000000"></path>
            <path d="M771.925495,633.92 C777.628495,634.883 779.686495,639.491 781.924495,643.919 C780.838495,644.166 781.246495,645.907 779.924495,645.918 C776.368495,643.808 775.783495,638.728 770.925495,637.919 C770.795495,636.129 772.145495,635.809 771.925495,633.919 L771.925495,633.92 Z" id="Path" fill="#000000"></path>
            <path d="M459.965495,636.92 L471.964495,636.92 C472.136495,641.748 478.621495,640.262 477.964495,645.919 C468.971495,647.912 468.725495,641.159 459.966495,642.92 L459.966495,636.92 L459.965495,636.92 Z" id="Path" fill="#000000"></path>
            <path d="M630.935495,864.89 C634.249495,864.538 635.273495,861.896 636.934495,859.891 C628.794495,860.518 623.989495,872.867 612.938495,873.889 C615.095495,861.4 603.292495,862.871 602.939495,852.892 C593.100495,853.399 586.799495,850.367 580.942495,846.893 C576.073495,845.69 578.232495,851.515 572.942495,849.892 C567.625495,843.773 556.986495,849.704 551.946495,852.892 C532.641495,851.252 521.059495,857.334 513.950495,867.89 L500.952495,867.89 C492.237495,860.209 480.276495,869.765 473.955495,873.889 C461.078495,874.768 450.189495,873.658 444.958495,866.89 C449.995495,857.725 447.684495,844.55 438.959495,840.893 C437.934495,822.921 425.085495,816.772 420.961495,801.898 L425.961495,801.898 C424.644495,793.217 418.341495,789.52 414.962495,782.901 C421.365495,778.95 414.876495,763.944 418.962495,759.904 C423.170495,758.362 419.121495,765.078 421.962495,764.903 C428.083495,758.359 435.379495,752.991 442.960495,747.905 C446.418495,747.114 447.181495,749.016 448.959495,749.905 C453.919495,746.533 461.979495,746.26 465.957495,741.906 C479.327495,748.132 485.877495,732.417 492.954495,725.908 L492.954495,714.909 C497.782495,714.738 496.295495,708.253 501.953495,708.91 C501.377495,713.819 503.249495,716.279 506.952495,716.909 C509.240495,715.198 507.319495,709.277 507.952495,705.911 L515.951495,705.911 C517.020495,702.176 513.468495,703.06 513.951495,699.911 C522.401495,693.029 529.650495,684.947 541.947495,681.914 C547.030495,684.497 549.337495,689.856 553.946495,692.912 C559.247495,688.431 559.142495,695.615 566.945495,693.912 C562.913495,687.42 567.494495,685.819 567.945495,678.914 C570.410495,679.046 572.761495,679.065 573.943495,677.914 L573.943495,669.915 C580.184495,666.157 593.302495,669.276 596.941495,662.916 C597.413495,658.111 590.832495,660.359 591.941495,654.917 C607.481495,659.23 622.814495,669.052 636.935495,663.916 C637.290495,666.895 641.050495,666.467 639.935495,670.915 C633.107495,675.752 631.473495,685.784 625.937495,691.912 C631.930495,701.584 646.617495,702.561 652.933495,711.91 L660.933495,711.91 C659.233495,719.608 667.275495,717.566 669.931495,720.909 C673.595495,720.906 672.584495,716.229 677.930495,717.909 C682.298495,708.612 686.974495,699.623 684.929495,683.913 C687.806495,677.791 691.189495,672.176 690.929495,662.916 C692.980495,660.301 694.942495,657.598 693.928495,651.918 L699.927495,651.918 C701.619495,662.558 706.773495,669.735 705.927495,682.914 C707.790495,688.716 717.075495,687.096 720.925495,690.913 C717.661495,709.508 729.771495,712.729 726.924495,730.907 C732.870495,736.626 740.389495,740.773 747.921495,744.906 C745.874495,753.286 752.449495,753.043 750.921495,760.904 C753.150495,763.342 757.418495,763.739 759.920495,765.903 C760.486495,778.335 769.058495,782.762 774.918495,789.9 C773.625495,800.605 770.397495,809.376 771.918495,822.896 C764.992495,826.968 762.331495,835.306 759.920495,843.893 C756.485495,845.458 753.231495,847.203 753.921495,852.892 C746.593495,853.563 742.593495,857.562 741.922495,864.89 C737.109495,869.076 730.397495,871.363 729.924495,879.888 C726.317495,879.614 727.212495,883.842 723.924495,883.888 L723.924495,891.887 C717.249495,896.21 701.939495,891.899 699.927495,900.886 L684.929495,900.886 L684.929495,895.886 C680.347495,895.303 680.268495,899.224 677.930495,900.886 C665.022495,903.128 660.536495,896.949 648.934495,897.886 C649.115495,895.705 648.116495,894.705 645.935495,894.886 C645.934495,891.553 645.935495,888.221 645.935495,884.888 C643.431495,882.725 642.664495,878.826 636.935495,879.888 C635.644495,874.931 639.355495,874.976 638.935495,870.89 C632.540495,870.161 633.591495,876.877 627.937495,876.889 C628.177495,872.109 632.587495,871.529 630.947495,864.889 L630.935495,864.89 Z" id="Path" fill="#000000"></path>
            <path d="M876.915495,861.89 L879.914495,861.89 C880.591495,866.68 882.096495,871.935 877.915495,874.888 C878.890495,877.579 880.119495,880.016 880.914495,882.887 C885.591495,883.898 884.236495,878.876 888.913495,879.887 C885.894495,885.534 882.754495,891.06 874.915495,891.886 C872.879495,902.182 863.279495,904.914 855.917495,909.884 C855.264495,904.564 860.501495,905.135 861.917495,901.885 C863.197495,897.937 859.003495,899.465 858.917495,896.885 C867.467495,887.805 878.437495,877.965 876.917495,861.885 L876.915495,861.89 Z" id="Path" fill="#000000"></path>
            <path d="M630.935495,880.89 C631.709495,884.398 622.690495,883.22 621.936495,881.89 C621.166495,878.38 630.186495,879.56 630.936495,880.89 L630.935495,880.89 Z" id="Path" fill="#000000"></path>
            <path d="M852.915495,906.89 C849.794495,917.767 836.115495,918.087 831.918495,927.887 C824.435495,927.404 819.439495,929.407 819.919495,936.886 C809.802495,938.98 803.188495,951.203 792.922495,941.885 C799.463495,937.428 805.081495,932.047 811.920495,927.887 C831.780495,927.077 832.450495,907.087 852.920495,906.887 L852.915495,906.89 Z" id="Path" fill="#000000"></path>
            <path d="M675.935495,915.89 C682.058495,914.766 684.831495,916.991 687.933495,918.889 C691.034495,916.991 693.809495,914.766 699.931495,915.89 C702.373495,929.983 683.720495,938.673 675.935495,929.888 C680.105495,925.828 674.315495,923.038 675.935495,915.888 L675.935495,915.89 Z" id="Path" fill="#000000"></path>
            <path d="M679.935495,72.991 L689.934495,72.991 C690.493495,75.765 693.374495,76.216 693.933495,78.991 C698.802495,80.194 696.643495,74.368 701.932495,75.991 C700.331495,80.057 701.085495,86.476 693.933495,84.99 C692.453495,104.582 719.184495,105.121 714.930495,120.986 C719.798495,120.854 719.856495,115.912 723.929495,114.986 C721.269495,103.66 732.408495,106.133 729.929495,94.989 C726.273495,88.646 714.023495,90.898 712.931495,81.99 C720.197495,84.019 719.147495,84.889 725.929495,81.99 C729.655495,80.931 729.157495,84.095 730.928495,84.99 C750.971495,84.583 782.701495,104.54 799.920495,113.987 C898.575495,168.114 971.110495,248.187 1015.8905,353.957 C1045.2545,423.309 1060.3995,504.117 1053.8855,600.927 C1049.6635,663.681 1027.9345,723.797 1002.8925,773.907 C954.271495,871.199 878.052495,947.837 779.922495,996.877 C702.687495,1035.476 613.822495,1055.19 504.962495,1047.871 C442.698495,1043.685 381.272495,1021.508 331.982495,996.877 C235.677495,948.749 157.622495,871.177 109.012495,773.907 C76.3694953,708.588 51.5914953,629.107 56.0194953,533.937 C60.0884953,446.472 80.0974953,380.867 113.012495,318.967 C118.525495,320.147 119.954495,317.244 124.011495,316.967 C124.612495,323.031 122.398495,331.912 126.011495,334.965 C123.029495,339.315 119.275495,342.895 121.011495,351.963 C125.969495,353.254 125.924495,349.543 130.010495,349.963 C128.318495,358.937 122.705495,363.989 124.010495,375.96 C124.887495,379.17 121.417495,378.033 121.010495,379.959 C122.517495,408.114 117.692495,442.604 124.010495,465.948 C134.598495,462.205 133.324495,446.599 142.008495,440.952 C142.491495,423.103 154.436495,416.718 151.007495,394.957 C154.122495,391.406 161.088495,391.707 161.006495,384.959 C166.352495,386.639 165.341495,381.962 169.005495,381.959 C173.136495,367.76 187.122495,363.414 194.002495,351.963 C201.045495,353.34 199.944495,346.572 205.001495,345.964 L205.001495,337.965 C207.076495,337.374 208.409495,336.041 209.000495,333.965 C222.736495,335.37 229.688495,329.989 237.997495,325.966 C237.959495,335.336 237.209495,345.419 245.996495,345.964 C246.985495,349.952 243.008495,348.975 243.996495,352.963 C250.977495,360.51 244.930495,374.98 243.996495,383.959 C255.302495,387.922 258.899495,375.539 267.993495,373.96 C264.155495,392.397 276.488495,408.635 267.993495,421.954 C273.900495,430.944 262.831495,444.202 264.993495,458.949 C265.413495,461.195 270.299495,458.976 270.993495,460.949 C272.145495,467.796 274.842495,473.097 279.992495,475.947 C277.985495,484.274 283.325495,493.706 279.992495,496.944 C280.543495,500.393 283.624495,501.312 285.992495,502.944 C285.885495,520.715 305.519495,518.746 309.989495,531.94 C312.702495,531.321 317.924495,533.21 318.988495,530.94 C319.352495,527.577 314.655495,529.274 312.989495,527.94 C314.147495,518.45 310.533495,513.731 306.989495,508.943 L306.989495,484.946 C298.977495,479.293 295.992495,468.613 282.992495,467.948 C285.021495,457.587 278.160495,456.115 279.992495,445.951 C279.572495,443.705 274.687495,445.924 273.993495,443.951 C274.292495,434.252 279.183495,429.144 282.992495,422.954 C282.308495,414.604 284.494495,409.125 288.991495,405.956 C293.625495,405.321 291.523495,411.423 291.991495,414.955 C299.856495,413.423 301.252495,418.358 306.989495,418.954 L306.989495,428.953 C309.802495,430.474 314.891495,429.717 312.989495,435.952 C316.117495,436.156 320.329495,435.278 321.988495,436.952 L321.988495,453.95 C328.486495,448.116 338.523495,445.821 340.986495,435.952 C352.762495,432.73 361.455495,426.426 366.983495,416.955 L366.983495,385.959 C362.797495,383.72 363.264495,381.526 360.984495,376.96 C359.053495,373.094 350.853495,369.198 348.985495,365.961 C348.434495,365.007 349.627495,362.845 348.985495,361.962 C345.622495,357.335 340.509495,355.384 342.985495,343.964 C354.210495,338.191 358.880495,325.863 374.981495,324.966 C379.836495,327.443 377.084495,337.528 383.980495,337.965 C378.004495,340.988 368.586495,340.569 366.982495,347.963 C366.974495,353.638 371.661495,354.616 373.981495,357.962 C383.012495,355.994 385.044495,347.027 390.979495,341.964 C391.167495,337.11 385.142495,338.469 384.979495,333.965 C389.546495,325.867 400.293495,323.949 410.976495,321.967 C419.862495,312.466 428.522495,314.824 443.972495,312.968 C444.733495,309.063 447.099495,306.763 448.972495,303.969 C464.105495,305.438 461.843495,289.51 474.969495,288.971 C472.695495,275.032 486.826495,277.497 486.968495,265.974 C497.000495,265.007 497.278495,254.286 501.967495,247.976 C500.567495,245.044 492.368495,248.909 490.968495,245.976 C490.309495,241.651 497.973495,245.649 498.967495,242.976 C502.706495,227.905 488.431495,230.848 489.968495,217.979 C487.431495,215.183 484.047495,213.235 481.969495,209.98 C488.821495,203.5 495.146495,196.494 507.966495,195.982 L507.966495,190.982 C504.632495,188.65 495.974495,191.643 494.967495,186.982 C491.190495,188.871 487.745495,191.092 483.968495,192.982 C480.844495,193.44 480.772495,190.846 480.968495,187.982 C477.714495,186.237 472.277495,186.674 472.969495,180.983 C489.817495,182.499 491.189495,168.54 506.965495,168.984 C505.255495,174.606 501.004495,177.687 498.966495,182.982 C506.878495,183.149 515.799495,170.587 528.963495,175.983 C529.867495,180.886 528.184495,183.203 525.963495,184.982 C526.597495,190.681 533.403495,190.207 539.962495,189.981 C537.862495,198.503 539.111495,202.224 537.962495,213.978 C548.707495,213.724 555.520495,209.538 564.959495,207.979 C566.755495,191.518 560.083495,183.525 549.961495,178.982 C551.711495,172.401 560.769495,173.126 564.959495,168.983 C564.797495,159.155 573.962495,158.655 578.957495,153.985 C598.252495,164.847 608.105495,144.172 620.951495,138.986 C622.532495,133.234 626.095495,129.465 630.950495,126.988 L630.950495,106.99 C641.635495,109.637 638.433495,126.171 645.949495,131.987 C644.764495,139.465 645.312495,143.514 648.948495,147.985 C648.068495,154.438 639.306495,153.009 636.949495,157.984 C643.377495,164.334 644.965495,179.598 639.949495,188.98 C636.169495,190.427 638.031495,186.232 634.949495,186.98 C631.218495,189.202 637.486495,189.66 635.949495,192.98 C626.252495,191.614 624.922495,198.617 616.952495,198.979 C614.784495,198.811 616.499495,202.525 615.952495,203.979 C608.023495,199.634 602.093495,207.655 589.955495,204.979 C583.166495,211.521 574.537495,216.224 564.959495,219.977 C564.112495,228.489 570.687495,229.581 570.958495,236.975 C573.446495,238.153 576.641495,238.625 577.957495,240.975 C584.850495,240.535 581.391495,229.744 585.956495,226.977 C586.678495,221.256 580.234495,222.699 580.957495,216.978 L587.956495,216.978 C590.001495,218.599 587.910495,224.356 589.955495,225.977 C596.182495,225.87 597.711495,221.067 605.953495,222.977 C608.887495,221.577 605.020495,213.378 607.953495,211.978 C611.447495,215.149 612.746495,220.517 616.952495,222.977 C620.740495,220.433 625.070495,218.43 624.951495,211.978 C633.297495,213.804 642.910495,215.656 645.949495,208.978 C649.138495,208.121 649.041495,210.552 650.947495,210.978 C653.577495,211.274 651.734495,207.099 654.947495,207.978 C653.181495,193.881 656.941495,185.308 660.947495,176.982 C657.492495,171.104 650.629495,168.636 649.948495,159.984 C655.260495,159.672 660.369495,159.563 661.947495,162.984 C666.885495,161.256 667.069495,154.776 675.945495,156.985 C676.492495,155.532 674.776495,151.817 676.945495,151.985 C674.127495,147.47 666.500495,147.764 658.947495,147.985 C658.194495,142.072 649.711495,143.889 648.948495,137.986 C649.804495,135.176 654.355495,136.061 657.947495,135.986 C658.274495,130.326 652.756495,130.512 648.948495,128.987 L648.948495,121.988 C649.642495,120.015 654.527495,122.234 654.947495,119.988 L654.947495,115.988 C643.261495,114.009 644.879495,98.726 635.949495,93.991 C631.967495,93.675 633.242495,98.616 629.951495,98.991 C623.233495,95.218 615.722495,91.96 607.953495,96.991 C606.885495,93.256 610.435495,94.141 609.953495,90.992 C605.285495,89.057 603.562495,95.177 600.954495,91.992 C599.781495,86.734 607.284495,87.649 611.953495,84.993 C617.486495,81.845 626.889495,69.575 634.949495,78.994 C652.232495,77.043 662.917495,81.69 677.944495,81.994 C680.454495,80.883 677.504495,74.264 679.904495,72.991 L679.935495,72.991 Z M515.955495,416.951 C510.434495,422.079 517.401495,426.814 516.955495,432.949 C519.420495,433.081 521.772495,433.1 522.954495,431.949 C524.177495,427.392 520.211495,428.026 520.954495,423.95 L525.953495,423.95 L525.953495,411.951 C523.772495,412.133 522.772495,411.133 522.953495,408.952 L511.954495,408.952 C511.267495,403.639 506.635495,402.272 507.954495,394.953 C503.842495,394.066 499.621495,393.287 496.955495,390.954 C496.042495,394.222 486.282495,396.252 486.956495,389.954 C487.155495,386.819 493.497495,389.829 492.956495,385.955 C492.052495,383.859 487.312495,385.599 486.956495,382.955 L486.956495,376.956 C490.847495,376.514 492.993495,374.327 495.955495,372.956 L495.955495,351.959 C488.248495,354 488.239495,348.343 481.957495,348.959 C479.471495,350.806 478.609495,354.277 474.957495,354.959 L474.957495,371.956 C473.775495,373.107 471.423495,373.088 468.958495,372.956 C467.133495,381.78 471.515495,384.397 471.958495,390.954 C473.411495,391.501 477.126495,389.786 476.958495,391.954 C477.703495,395.032 474.213495,393.876 474.958495,396.953 C476.848495,397.396 480.984495,395.594 479.958495,398.953 C479.702495,401.029 475.565495,399.226 474.958495,400.953 C476.281495,406.963 477.843495,412.733 482.957495,414.951 C485.140495,413.135 487.320495,411.314 486.957495,406.952 C486.551495,405.025 483.081495,406.162 483.957495,402.952 C484.302495,399.965 486.642495,398.972 488.957495,397.953 C490.192495,401.188 485.722495,398.718 486.957495,401.953 C491.422495,404.623 498.150495,402.148 501.956495,400.953 C504.089495,407.457 502.984495,407.96 501.956495,414.951 C507.782495,413.124 506.112495,418.794 510.955495,417.95 C513.596495,412.037 505.125495,410.963 509.955495,408.952 C510.625495,412.952 515.555495,412.682 515.955495,416.952 L515.955495,416.951 Z M474.955495,303.961 C473.643495,312.939 478.093495,316.155 482.954495,318.959 C489.477495,311.15 493.470495,300.812 495.953495,288.963 C481.123495,286.133 483.613495,300.623 474.953495,303.963 L474.955495,303.961 Z M508.955495,423.951 C506.704495,424.366 509.104495,429.433 505.955495,428.95 C500.381495,425.526 502.097495,414.81 489.957495,417.951 C491.684495,424.678 487.423495,425.416 486.957495,429.95 C490.324495,430.583 496.245495,428.662 497.956495,430.95 C498.247495,435.24 493.245495,434.237 492.957495,437.949 C492.489495,442.417 495.450495,443.455 497.956495,444.948 C504.729495,443.388 506.093495,436.421 516.954495,438.949 C517.823495,435.08 514.512495,435.391 513.954495,432.95 C510.219495,431.881 511.104495,435.432 507.955495,434.949 C510.825495,433.029 513.955495,425.349 508.955495,423.949 L508.955495,423.951 Z M522.955495,443.941 C521.773495,445.092 519.421495,445.073 516.956495,444.941 L516.956495,449.94 C513.546495,450.53 511.702495,452.686 507.957495,452.94 L507.957495,447.941 C499.844495,449.821 483.868495,457.591 491.959495,465.938 C494.210495,465.523 491.809495,460.456 494.959495,460.939 C498.088495,465.057 502.066495,461.628 504.958495,459.939 C507.849495,460.38 509.516495,462.047 509.957495,464.938 C509.069495,466.716 507.166495,467.48 507.957495,470.938 C512.793495,475.433 516.967495,480.592 525.955495,480.936 C527.062495,476.711 523.601495,467.916 527.955495,466.938 C530.123495,466.77 528.408495,470.485 528.955495,471.938 C535.509495,471.826 534.613495,464.263 537.954495,460.939 C533.699495,459.195 535.121495,451.774 534.955495,445.941 C533.004495,443.559 529.012495,443.218 529.955495,437.942 C525.809495,439.088 526.059495,435.838 522.956495,435.942 L522.956495,443.942 L522.955495,443.941 Z M136.005495,483.941 C156.734495,487.461 147.679495,451.788 140.005495,447.946 C138.955495,460.226 134.345495,468.966 136.005495,483.946 L136.005495,483.941 Z M432.965495,465.941 C433.789495,474.097 425.733495,473.374 425.966495,480.939 L420.966495,480.939 C421.098495,483.404 421.117495,485.757 419.966495,486.939 C403.391495,487.41 404.352495,504.755 390.970495,507.936 C387.250495,514.881 377.966495,516.263 373.972495,522.934 C367.020495,524.886 368.273495,518.634 361.973495,519.934 C359.487495,521.781 358.625495,525.252 354.974495,525.934 C353.495495,538.411 359.881495,543.024 360.974495,552.93 C363.625495,552.946 366.861495,552.375 366.973495,554.93 C364.959495,563.276 370.214495,564.355 369.973495,570.928 L383.972495,570.928 C385.123495,572.11 385.104495,574.462 384.972495,576.927 C393.040495,572.077 410.951495,568.849 411.969495,582.926 C419.600495,581.794 423.626495,577.821 429.967495,582.926 C427.942495,570.237 434.913495,566.542 432.967495,553.93 C436.497495,553.127 436.142495,548.44 441.966495,549.931 C442.397495,546.695 440.650495,541.283 443.966495,540.932 C449.486495,540.744 448.255495,547.308 453.965495,546.931 C456.059495,537.838 447.165495,539.733 444.966495,534.933 C444.667495,529.634 452.820495,532.787 456.965495,531.933 C458.807495,523.425 451.298495,524.268 447.966495,520.934 C449.957495,512.278 445.075495,510.494 442.967495,505.936 C445.931495,504.568 444.076495,498.38 445.967495,495.938 L453.966495,495.938 C452.270495,488.576 459.390495,490.03 459.965495,484.939 C456.193495,481.712 454.477495,476.428 445.967495,477.94 C445.371495,472.203 440.435495,470.807 441.967495,462.942 C437.127495,462.102 438.797495,467.772 432.967495,465.942 L432.965495,465.941 Z M252.985495,506.941 C256.915495,525.008 276.478495,527.443 276.982495,548.936 C280.017495,552.9 283.445495,556.471 282.982495,563.934 C285.847495,567.402 288.659495,570.922 288.981495,576.932 C291.446495,576.8 293.798495,576.781 294.980495,577.932 C295.499495,590.078 310.155495,588.087 312.978495,597.929 C320.250495,596.657 323.644495,599.262 327.976495,600.929 C333.899495,591.327 323.529495,581.042 331.976495,571.933 C335.054495,571.188 333.897495,574.677 336.976495,573.933 C340.315495,565.984 327.754495,566.929 330.976495,555.935 C325.791495,554.749 324.812495,557.77 321.977495,558.934 C321.494495,562.083 325.046495,561.199 323.977495,564.934 C314.684495,562.895 317.136495,549.112 306.979495,547.936 C306.170495,543.127 311.367495,544.324 309.979495,538.937 C307.803495,531.448 299.151495,530.434 296.980495,522.939 C287.389495,518.865 275.637495,516.952 273.983495,504.941 C262.603495,504.323 262.293495,492.635 255.985495,486.944 C249.845495,487.419 244.505495,487.092 241.987495,483.944 L237.987495,483.944 C238.417495,496.174 245.287495,501.974 252.987495,506.944 L252.985495,506.941 Z M543.955495,561.931 C549.226495,562.536 552.052495,560.696 552.954495,556.932 C551.355495,553.864 547.081495,553.473 546.955495,548.933 C553.523495,547.834 551.967495,538.613 561.953495,540.934 C562.854495,535.034 556.214495,536.674 555.954495,531.935 C555.082495,528.063 560.319495,530.301 558.953495,525.936 C558.714495,524.509 557.307495,524.249 556.953495,522.936 C552.966495,521.948 553.943495,525.924 549.955495,524.936 C549.728495,520.759 551.580495,520.213 549.955495,516.937 L546.955495,516.937 C542.235495,533.107 541.545495,544.467 543.955495,561.937 L543.955495,561.931 Z M464.965495,537.931 L459.965495,537.931 C460.006495,540.971 460.547495,544.512 456.965495,543.93 C460.325495,555.467 456.100495,563.345 453.965495,576.926 C457.093495,577.13 461.305495,576.252 462.964495,577.926 C464.797495,587.426 460.415495,590.708 459.964495,597.923 L471.963495,597.923 C473.643495,588.605 468.409495,572.371 474.963495,567.927 C479.971495,571.252 477.315495,582.24 482.962495,584.925 C482.872495,586.501 480.412495,585.708 480.962495,587.925 C482.543495,590.677 486.072495,591.48 486.961495,594.924 C490.110495,595.407 489.225495,591.855 492.961495,592.924 L492.961495,597.923 L498.960495,597.923 C497.655495,591.952 500.492495,590.123 501.960495,586.925 C493.908495,582.312 492.078495,571.476 487.961495,562.928 C491.184495,560.485 492.641495,556.277 494.960495,552.929 C495.077495,554.896 501.588495,558.582 501.960495,553.929 C502.134495,551.088 495.418495,555.138 496.960495,550.929 C502.172495,550.809 502.082495,545.387 502.959495,540.931 C511.096495,542.402 508.593495,533.233 516.958495,534.932 L516.958495,525.933 C500.278495,537.053 468.918495,515.043 464.958495,537.933 L464.965495,537.931 Z M570.945495,561.931 L579.944495,561.931 C578.999495,555.877 571.686495,556.191 573.944495,546.933 L570.945495,546.933 C568.565495,551.603 571.855495,555.793 570.945495,561.933 L570.945495,561.931 Z M591.945495,570.931 C598.947495,570.928 601.958495,574.916 600.944495,582.929 C610.168495,579.037 617.272495,580.32 623.941495,585.929 C643.806495,588.062 658.622495,595.243 660.937495,614.925 C654.525495,615.846 650.392495,619.045 651.937495,627.924 C667.691495,624.995 678.757495,624.317 684.933495,636.922 C695.007495,637.998 702.087495,636.078 708.930495,633.923 C707.172495,627.498 713.509495,629.17 711.930495,622.924 C719.720495,617.478 728.008495,623.31 735.927495,625.924 C737.768495,634.748 744.243495,638.938 747.925495,645.921 L764.923495,645.921 C767.060495,649.117 768.572495,652.938 774.922495,651.921 C772.979495,641.531 765.685495,636.494 756.924495,632.923 C758.504495,626.677 752.166495,628.349 753.925495,621.924 C751.459495,622.056 749.107495,622.075 747.925495,620.925 C749.752495,615.099 744.082495,616.768 744.926495,611.926 C745.037495,609.371 748.274495,609.941 750.925495,609.926 C751.136495,599.383 740.738495,599.448 732.927495,596.928 L732.927495,588.929 C725.567495,584.29 716.704495,581.155 711.930495,573.931 C698.888495,574.307 691.166495,569.364 682.933495,564.932 C667.725495,566.142 661.421495,558.448 652.937495,552.933 C646.127495,561.121 635.478495,565.47 628.941495,573.931 C626.112495,573.759 622.082495,574.79 621.941495,571.931 L621.941495,564.932 C620.488495,564.385 616.773495,566.1 616.942495,563.932 C616.197495,560.854 619.687495,562.01 618.942495,558.932 C614.160495,557.715 616.796495,549.08 612.943495,546.934 C598.752495,546.282 585.109495,548.034 576.947495,547.934 C574.604495,558.942 589.485495,552.727 591.945495,558.932 C592.329495,562.316 587.519495,560.506 588.945495,564.932 C595.875495,566.557 601.750495,562.823 603.943495,562.932 C603.153495,568.812 593.503495,565.832 591.943495,570.932 L591.945495,570.931 Z M552.955495,563.931 C556.433495,566.69 561.964495,562.979 561.954509,558.931 C558.174495,559.821 554.994495,561.311 552.954495,563.931 L552.955495,563.931 Z M549.955495,572.931 C554.137495,575.16 549.829495,576.287 549.955495,579.93 C557.245495,581.887 555.982495,575.291 560.953495,574.93 C567.363495,577.288 573.432495,574.593 579.951495,579.93 C583.851495,568.58 555.421495,562.48 549.951495,572.93 L549.955495,572.931 Z M531.955495,579.931 C538.101495,580.41 543.237495,579.881 543.953495,574.931 C541.413495,568.361 529.723495,570.531 531.953495,579.931 L531.955495,579.931 Z M346.975495,603.921 C334.190495,604.255 329.583495,598.016 324.978495,608.92 C333.570495,614.54 347.982495,625.072 358.974495,618.919 C361.603495,618.622 359.761495,622.798 362.974495,621.918 C372.234495,621.657 377.849495,625.041 383.972495,627.918 C393.245495,628.644 406.134495,625.753 410.969495,630.917 C414.567495,624.808 416.742495,631.476 422.968495,630.917 C424.119495,629.735 424.100495,627.383 423.968495,624.918 C417.243495,625.644 413.414495,623.474 411.970495,618.919 C407.744495,617.812 398.950495,621.273 397.971495,616.919 C401.945495,614.893 409.514495,616.464 408.970495,609.92 C402.381495,609.33 396.997495,609.945 393.972495,612.92 C387.599495,610.293 382.212495,606.682 372.975495,606.92 C372.428495,608.373 374.143495,612.088 371.975495,611.92 C363.735495,609.16 352.095495,609.8 346.975495,603.92 L346.975495,603.921 Z M528.955495,620.921 C529.708495,622.25 538.728495,623.429 537.954495,619.921 C537.194495,618.591 528.174495,617.421 528.954495,620.921 L528.955495,620.921 Z M433.965495,624.921 C428.612495,624.901 426.811495,628.433 426.966495,633.92 C437.452495,632.418 448.215495,634.727 459.962495,630.92 C457.332495,616.42 439.462495,633.58 433.962495,624.92 L433.965495,624.921 Z M465.965495,630.921 C475.039495,629.846 476.764495,636.12 486.962495,633.921 L486.962495,627.922 C478.602495,628.682 468.092495,619.312 465.962495,630.922 L465.965495,630.921 Z M510.955495,626.921 C511.708495,628.25 520.728495,629.429 519.954495,625.921 C519.204495,624.591 510.184495,623.411 510.954495,626.921 L510.955495,626.921 Z M523.955495,627.921 C520.218495,637.516 502.032495,632.66 504.957495,648.918 C509.491495,648.452 510.229495,644.191 516.956495,645.918 C521.196495,636.161 533.793495,634.759 541.952495,628.92 C540.372495,620.28 532.872495,631.57 523.952495,627.92 L523.955495,627.921 Z M770.925495,637.921 C775.783495,638.73 776.368495,643.81 779.924495,645.92 C781.246495,645.909 780.838495,644.168 781.924495,643.921 C779.686495,639.493 777.628495,634.885 771.925495,633.922 C772.145495,635.812 770.795495,636.132 770.925495,637.922 L770.925495,637.921 Z M459.965495,642.921 C468.724495,641.16 468.970495,647.913 477.963495,645.92 C478.621495,640.263 472.135495,641.749 471.963495,636.921 L459.964495,636.921 L459.964495,642.921 L459.965495,642.921 Z M627.945495,876.891 C633.599495,876.879 632.549495,870.162 638.943495,870.892 C639.363495,874.978 635.652495,874.933 636.943495,879.89 C642.672495,878.828 643.439495,882.727 645.943495,884.89 C645.943495,888.223 645.942495,891.555 645.943495,894.888 C648.124495,894.707 649.123495,895.707 648.942495,897.888 C660.545495,896.951 665.030495,903.13 677.938495,900.888 C680.276495,899.226 680.355495,895.305 684.937495,895.888 L684.937495,900.888 L699.935495,900.888 C701.947495,891.901 717.257495,896.212 723.932495,891.889 L723.932495,883.89 C727.220495,883.844 726.325495,879.616 729.932495,879.89 C730.405495,871.365 737.117495,869.077 741.930495,864.892 C742.601495,857.564 746.601495,853.565 753.929495,852.894 C753.239495,847.205 756.493495,845.46 759.928495,843.895 C762.339495,835.308 765.000495,826.97 771.926495,822.898 C770.405495,809.377 773.633495,800.607 774.926495,789.902 C769.066495,782.764 760.494495,778.337 759.928495,765.905 C757.426495,763.741 753.157495,763.343 750.929495,760.906 C752.457495,753.045 745.882495,753.288 747.929495,744.908 C740.397495,740.775 732.878495,736.628 726.932495,730.909 C729.779495,712.731 717.669495,709.51 720.933495,690.915 C717.083495,687.098 707.798495,688.718 705.935495,682.916 C706.781495,669.737 701.627495,662.56 699.935495,651.92 L693.936495,651.92 C694.950495,657.6 692.988495,660.303 690.937495,662.918 C691.197495,672.178 687.814495,677.793 684.937495,683.915 C686.982495,699.625 682.306495,708.614 677.938495,717.911 C672.592495,716.231 673.603495,720.908 669.939495,720.911 C667.283495,717.568 659.241495,719.61 660.941495,711.912 L652.941495,711.912 C646.625495,702.563 631.938495,701.586 625.945495,691.914 C631.481495,685.786 633.115495,675.754 639.943495,670.917 C641.058495,666.469 637.298495,666.896 636.943495,663.918 C622.822495,669.054 607.489495,659.231 591.949495,654.919 C590.840495,660.361 597.421495,658.113 596.949495,662.918 C593.310495,669.278 580.192495,666.159 573.951495,669.917 L573.951495,677.916 C572.769495,679.067 570.418495,679.048 567.953495,678.916 C567.502495,685.821 562.921495,687.422 566.953495,693.914 C559.150495,695.617 559.255495,688.433 553.954495,692.914 C549.345495,689.858 547.038495,684.499 541.955495,681.916 C529.658495,684.949 522.409495,693.031 513.959495,699.913 C513.476495,703.062 517.028495,702.178 515.959495,705.913 L507.960495,705.913 C507.327495,709.279 509.248495,715.2 506.960495,716.911 C503.257495,716.281 501.385495,713.821 501.961495,708.912 C496.303495,708.255 497.790495,714.74 492.962495,714.911 L492.962495,725.91 C485.885495,732.419 479.335495,748.134 465.965495,741.908 C461.987495,746.262 453.927495,746.535 448.967495,749.907 C447.189495,749.018 446.425495,747.116 442.968495,747.907 C435.388495,752.993 428.092495,758.361 421.970495,764.905 C419.129495,765.08 423.178495,758.364 418.970495,759.906 C414.884495,763.946 421.373495,778.952 414.970495,782.903 C418.349495,789.522 424.651495,793.219 425.969495,801.9 L420.969495,801.9 C425.093495,816.774 437.942495,822.923 438.967495,840.895 C447.692495,844.552 450.003495,857.727 444.966495,866.892 C450.196495,873.66 461.085495,874.77 473.963495,873.891 C480.284495,869.767 492.244495,860.211 500.960495,867.892 L513.958495,867.892 C521.067495,857.336 532.649495,851.254 551.954495,852.894 C556.994495,849.706 567.633495,843.775 572.950495,849.894 C578.240495,851.517 576.081495,845.692 580.950495,846.895 C586.807495,850.369 593.108495,853.401 602.947495,852.894 C603.300495,862.873 615.103495,861.402 612.946495,873.891 C623.997495,872.869 628.802495,860.52 636.942495,859.893 C635.281495,861.898 634.257495,864.54 630.943495,864.892 C632.563495,871.522 628.153495,872.102 627.933495,876.882 L627.945495,876.891 Z M858.915495,896.891 C859.001495,899.471 863.195495,897.943 861.915495,901.891 C860.499495,905.141 855.262495,904.57 855.915495,909.89 C863.277495,904.92 872.877495,902.188 874.913495,891.892 C882.752495,891.066 885.892495,885.54 888.911495,879.893 C884.234495,878.882 885.589495,883.904 880.912495,882.893 C880.117495,880.022 878.888495,877.585 877.913495,874.894 C882.094495,871.941 880.589495,866.686 879.912495,861.896 L876.913495,861.896 C878.433495,877.976 867.463495,887.816 858.913495,896.896 L858.915495,896.891 Z M621.945495,881.891 C622.699495,883.221 631.718495,884.399 630.944495,880.891 C630.184495,879.561 621.164495,878.381 621.944495,881.891 L621.945495,881.891 Z M811.915495,927.881 C805.076495,932.041 799.458495,937.422 792.917495,941.879 C803.183495,951.197 809.797495,938.974 819.914495,936.88 C819.434495,929.401 824.430495,927.398 831.913495,927.881 C836.110495,918.081 849.789495,917.761 852.910495,906.884 C832.440495,907.094 831.770495,927.084 811.910495,927.884 L811.915495,927.881 Z M675.935495,929.881 C683.720495,938.666 702.373495,929.976 699.931495,915.883 C693.809495,914.759 691.034495,916.984 687.933495,918.882 C684.831495,916.984 682.058495,914.759 675.935495,915.883 C674.315495,923.043 680.105495,925.833 675.935495,929.883 L675.935495,929.881 Z" id="Shape" fill="#FFFFFF"></path>
            <path d="M530.955495,38.995 C695.805495,31.145 820.915495,97.208 904.905495,175.975 C989.323495,255.143 1059.5155,370.135 1066.8855,524.935 C1070.9405,610.063 1054.0665,681.895 1028.8905,742.905 C1003.8085,803.688 970.764495,855.665 929.903495,898.885 C847.584495,985.96 737.443495,1052.365 579.943495,1059.865 C415.823495,1067.68 291.083495,1002.007 206.993495,923.885 C118.493495,841.605 53.3534953,731.555 45.0334953,574.895 C36.1604953,407.955 102.345495,286.235 180.013495,200.945 C238.520495,136.694 319.873495,83.685 418.983495,55.965 C452.863495,46.481 494.253495,40.709 530.973495,38.96 L530.955495,38.995 Z M677.935495,81.99 C662.908495,81.686 652.223495,77.039 634.940495,78.99 C626.879495,69.571 617.477495,81.841 611.944495,84.989 C607.275495,87.645 599.772495,86.73 600.945495,91.988 C603.553495,95.173 605.276495,89.053 609.944495,90.988 C610.426495,94.137 606.876495,93.252 607.944495,96.987 C615.714495,91.956 623.224495,95.214 629.942495,98.987 C633.233495,98.612 631.958495,93.671 635.940495,93.987 C644.870495,98.722 643.253495,114.005 654.938495,115.984 L654.938495,119.984 C654.518495,122.23 649.633495,120.011 648.939495,121.984 L648.939495,128.983 C652.747495,130.508 658.265495,130.322 657.938495,135.982 C654.346495,136.057 649.795495,135.172 648.939495,137.982 C649.702495,143.885 658.185495,142.067 658.938495,147.981 C666.491495,147.76 674.118495,147.465 676.936495,151.981 C674.767495,151.813 676.483495,155.527 675.936495,156.981 C667.060495,154.772 666.875495,161.252 661.938495,162.98 C660.360495,159.559 655.250495,159.669 649.939495,159.98 C650.620495,168.632 657.483495,171.1 660.938495,176.978 C656.932495,185.304 653.172495,193.877 654.938495,207.974 C651.725495,207.095 653.568495,211.27 650.938495,210.974 C649.032495,210.548 649.129495,208.117 645.940495,208.974 C642.901495,215.652 633.288495,213.8 624.942495,211.974 C625.061495,218.425 620.731495,220.428 616.943495,222.973 C612.737495,220.514 611.438495,215.146 607.944495,211.974 C605.011495,213.374 608.878495,221.572 605.944495,222.973 C597.702495,221.062 596.173495,225.866 589.946495,225.973 C587.901495,224.352 589.992495,218.595 587.947495,216.974 L580.948495,216.974 C580.225495,222.695 586.669495,221.252 585.947495,226.973 C581.382495,229.74 584.841495,240.531 577.948495,240.971 C576.632495,238.621 573.437495,238.15 570.949495,236.971 C570.678495,229.577 564.103495,228.485 564.950495,219.973 C574.528495,216.22 583.157495,211.517 589.946495,204.975 C602.084495,207.651 608.014495,199.63 615.943495,203.975 C616.490495,202.522 614.775495,198.807 616.943495,198.975 C624.913495,198.613 626.243495,191.61 635.940495,192.976 C637.477495,189.657 631.209495,189.198 634.940495,186.976 C638.022495,186.228 636.160495,190.423 639.940495,188.976 C644.956495,179.594 643.368495,164.33 636.940495,157.98 C639.297495,153.005 648.059495,154.434 648.939495,147.981 C645.303495,143.51 644.755495,139.46 645.940495,131.983 C638.424495,126.167 641.626495,109.633 630.941495,106.986 L630.941495,126.984 C626.086495,129.461 622.523495,133.23 620.942495,138.982 C608.096495,144.168 598.243495,164.842 578.948495,153.981 C573.953495,158.651 564.788495,159.151 564.950495,168.979 C560.760495,173.121 551.702495,172.396 549.952495,178.978 C560.074495,183.52 566.746495,191.514 564.950495,207.975 C555.511495,209.534 548.698495,213.72 537.953495,213.974 C539.102495,202.22 537.853495,198.499 539.953495,189.977 C533.394495,190.203 526.589495,190.677 525.954495,184.978 C528.175495,183.199 529.858495,180.882 528.954495,175.979 C515.790495,170.583 506.870495,183.145 498.957495,182.978 C500.995495,177.683 505.246495,174.602 506.956495,168.98 C491.181495,168.536 489.808495,182.495 472.960495,180.979 C472.268495,186.67 477.705495,186.233 480.959495,187.978 C480.762495,190.841 480.834495,193.435 483.959495,192.978 C487.736495,191.089 491.181495,188.868 494.958495,186.978 C495.964495,191.638 504.622495,188.646 507.957495,190.978 L507.957495,195.978 C495.137495,196.49 488.812495,203.496 481.960495,209.976 C484.038495,213.231 487.422495,215.179 489.959495,217.975 C488.421495,230.844 502.697495,227.901 498.958495,242.972 C497.964495,245.644 490.300495,241.646 490.959495,245.972 C492.359495,248.905 500.558495,245.039 501.958495,247.972 C497.269495,254.282 496.991495,265.003 486.959495,265.97 C486.817495,277.493 472.687495,275.028 474.960495,288.967 C461.835495,289.506 464.097495,305.434 448.963495,303.965 C447.091495,306.759 444.724495,309.059 443.963495,312.964 C428.513495,314.82 419.853495,312.462 410.967495,321.963 C400.284495,323.945 389.537495,325.863 384.970495,333.961 C385.133495,338.465 391.157495,337.107 390.970495,341.96 C385.034495,347.023 383.003495,355.99 373.972495,357.958 C371.652495,354.612 366.965495,353.634 366.973495,347.959 C368.577495,340.565 377.995495,340.984 383.971495,337.961 C377.075495,337.524 379.827495,327.44 374.972495,324.962 C358.870495,325.858 354.201495,338.186 342.976495,343.96 C340.499495,355.38 345.612495,357.331 348.976495,361.958 C349.618495,362.841 348.425495,365.003 348.976495,365.957 C350.844495,369.194 359.044495,373.09 360.975495,376.956 C363.255495,381.522 362.788495,383.716 366.974495,385.955 L366.974495,416.951 C361.447495,426.422 352.753495,432.726 340.977495,435.948 C338.514495,445.817 328.477495,448.112 321.979495,453.946 L321.979495,436.948 C320.320495,435.274 316.108495,436.152 312.980495,435.948 C314.883495,429.713 309.793495,430.469 306.980495,428.949 L306.980495,418.95 C301.243495,418.354 299.847495,413.419 291.982495,414.951 C291.515495,411.419 293.616495,405.317 288.982495,405.952 C284.485495,409.121 282.299495,414.6 282.983495,422.95 C279.174495,429.14 274.283495,434.248 273.984495,443.947 C274.678495,445.92 279.563495,443.701 279.983495,445.947 C278.151495,456.111 285.012495,457.583 282.983495,467.944 C295.983495,468.609 298.968495,479.289 306.980495,484.942 L306.980495,508.939 C310.524495,513.727 314.138495,518.446 312.980495,527.936 C314.647495,529.27 319.343495,527.573 318.979495,530.936 C317.916495,533.206 312.694495,531.317 309.980495,531.936 C305.510495,518.742 285.876495,520.711 285.983495,502.94 C283.615495,501.308 280.534495,500.389 279.983495,496.94 C283.316495,493.702 277.976495,484.27 279.983495,475.943 C274.834495,473.093 272.137495,467.792 270.984495,460.945 C270.290495,458.972 265.405495,461.191 264.984495,458.945 C262.822495,444.198 273.891495,430.94 267.984495,421.95 C276.479495,408.631 264.146495,392.392 267.984495,373.956 C258.890495,375.535 255.293495,387.918 243.987495,383.955 C244.921495,374.976 250.968495,360.506 243.987495,352.959 C242.998495,348.971 246.975495,349.948 245.987495,345.96 C237.200495,345.415 237.950495,335.333 237.988495,325.962 C229.679495,329.985 222.728495,335.365 208.991495,333.961 C208.400495,336.037 207.067495,337.37 204.992495,337.961 L204.992495,345.96 C199.935495,346.568 201.036495,353.336 193.993495,351.959 C187.114495,363.41 173.128495,367.756 168.996495,381.955 C165.332495,381.958 166.343495,386.635 160.997495,384.955 C161.079495,391.703 154.113495,391.402 150.998495,394.953 C154.428495,416.714 142.482495,423.099 141.999495,440.948 C133.315495,446.595 134.589495,462.201 124.001495,465.944 C117.683495,442.599 122.509495,408.11 121.001495,379.955 C121.408495,378.029 124.877495,379.166 124.001495,375.956 C122.695495,363.985 128.309495,358.933 130.001495,349.959 C125.915495,349.539 125.959495,353.25 121.002495,351.959 C119.266495,342.891 123.019495,339.311 126.002495,334.961 C122.389495,331.909 124.603495,323.028 124.002495,316.963 C119.946495,317.239 118.516495,320.143 113.003495,318.963 C80.0884953,380.862 60.0794953,446.473 56.0104953,533.933 C51.5824953,629.104 76.3604953,708.583 109.003495,773.903 C157.614495,871.173 235.673495,948.743 331.973495,996.873 C381.258495,1021.504 442.683495,1043.682 504.953495,1047.867 C613.823495,1055.185 702.683495,1035.471 779.913495,996.873 C878.043495,947.833 954.263495,871.193 1002.8835,773.903 C1027.9255,723.793 1049.6545,663.683 1053.8765,600.923 C1060.3905,504.11 1045.2455,423.303 1015.8815,353.953 C971.221495,248.153 898.681495,168.073 800.021495,113.953 C782.802495,104.506 751.072495,84.549 731.029495,84.956 C729.258495,84.061 729.756495,80.898 726.030495,81.956 C719.248495,84.855 720.298495,83.985 713.032495,81.956 C714.124495,90.863 726.374495,88.612 730.030495,94.955 C732.509495,106.099 721.370495,103.626 724.030495,114.952 C719.957495,115.878 719.899495,120.82 715.031495,120.952 C719.285495,105.087 692.553495,104.549 694.034495,84.956 C701.186495,86.442 700.432495,80.023 702.033495,75.957 C696.744495,74.334 698.903495,80.16 694.034495,78.957 C693.475495,76.183 690.594495,75.732 690.035495,72.957 L680.036495,72.957 C677.646495,74.218 680.596495,80.837 678.046495,81.952 L677.935495,81.99 Z" id="Shape" fill="#000000"></path>
            <path d="M516.955495,525.94 L516.955495,534.939 C508.590495,533.24 511.094495,542.409 502.956495,540.938 C502.079495,545.394 502.169495,550.816 496.957495,550.936 C495.415495,555.145 502.131495,551.095 501.957495,553.936 C501.585495,558.589 495.074495,554.903 494.957495,552.936 C492.638495,556.284 491.181495,560.492 487.958495,562.935 C492.075495,571.483 493.904495,582.319 501.957495,586.932 C500.489495,590.13 497.652495,591.959 498.957495,597.93 L492.958495,597.93 L492.958495,592.931 C489.223495,591.862 490.108495,595.414 486.958495,594.931 C486.069495,591.487 482.540495,590.684 480.959495,587.932 C480.409495,585.715 482.868495,586.508 482.959495,584.932 C477.312495,582.247 479.968495,571.259 474.960495,567.934 C468.406495,572.378 473.640495,588.612 471.960495,597.93 L459.961495,597.93 C460.412495,590.715 464.794495,587.433 462.961495,577.933 C461.302495,576.259 457.090495,577.137 453.962495,576.933 C456.097495,563.352 460.322495,555.474 456.962495,543.937 C460.543495,544.519 460.002495,540.978 459.962495,537.938 L464.962495,537.938 C468.932495,515.038 500.292495,537.048 516.962495,525.938 L516.955495,525.94 Z M492.955495,546.93 C497.911495,545.22 499.553495,540.196 500.954495,534.932 L478.956495,534.932 C483.796495,538.772 490.376495,540.852 492.956495,546.932 L492.955495,546.93 Z M468.955495,541.93 L468.955495,545.929 C472.905495,547.2 484.539495,548.435 486.953495,544.929 C486.943495,538.399 473.283495,540.899 468.953495,541.929 L468.955495,541.93 Z" id="Shape" fill="#000000"></path>
            <path d="M546.955495,516.94 L549.955495,516.94 C551.580495,520.216 549.728495,520.762 549.955495,524.939 C553.943495,525.927 552.966495,521.951 556.953495,522.939 C557.307495,524.252 558.714495,524.512 558.953495,525.939 C560.319495,530.304 555.082495,528.066 555.954495,531.938 C556.214495,536.677 562.854495,535.037 561.953495,540.937 C551.967495,538.616 553.523495,547.837 546.955495,548.936 C547.081495,553.476 551.355495,553.867 552.954495,556.935 C552.052495,560.699 549.226495,562.539 543.955495,561.934 C541.545495,544.454 542.235495,533.094 546.955495,516.934 L546.955495,516.94 Z" id="Path" fill="#000000"></path>
        </g>
    </g>
</svg>